<?xml version="1.0" encoding="utf-8"?>
<!-- Generated by IcoMoon.io -->
<!DOCTYPE svg PUBLIC "-//W3C//DTD SVG 1.1//EN" "http://www.w3.org/Graphics/SVG/1.1/DTD/svg11.dtd">
<svg version="1.1" xmlns="http://www.w3.org/2000/svg" xmlns:xlink="http://www.w3.org/1999/xlink" width="51" height="32" viewBox="0 0 51 32">
<path fill="rgb(246, 246, 246)" d="M0 2.88h51.2v25.6h-51.2v-25.6z"></path>
<path fill="rgb(38, 86, 151)" d="M47.36 0c-2.56 0-29.664 0-44.8 0-1.28 0-2.56 1.28-2.56 2.56v3.84h51.2c0 0 0 5.952 0-2.56 0-2.56-1.28-3.84-3.84-3.84z"></path>
<path fill="rgb(217, 123, 22)" d="M0 25.6c0 0 0 0 0 2.56s1.28 3.84 3.84 3.84c14.272 0 40.96 0 43.52 0s3.84-1.28 3.84-3.84v-2.56h-51.2z"></path>
<path fill="rgb(38, 86, 151)" d="M35.712 9.536c-0.704-0.288-1.856-0.576-3.232-0.576-3.584 0-6.112 1.856-6.112 4.48-0.032 1.952 1.792 3.040 3.168 3.68 1.408 0.672 1.888 1.088 1.888 1.696 0 0.896-1.12 1.312-2.176 1.312-1.44 0-2.208-0.192-3.424-0.704l-0.48-0.224-0.512 3.040c0.832 0.384 2.4 0.704 4.032 0.736 3.808 0 6.272-1.824 6.304-4.64 0-1.536-0.96-2.72-3.040-3.68-1.28-0.64-2.048-1.056-2.048-1.696 0-0.576 0.672-1.152 2.080-1.152 1.184-0.032 2.048 0.256 2.72 0.512l0.32 0.16 0.512-2.944z"></path>
<path fill="rgb(38, 86, 151)" d="M44.992 9.216h-2.784c-0.864 0-1.504 0.256-1.888 1.12l-5.376 12.448h3.808c0 0 0.608-1.664 0.768-2.048 0.416 0 4.096 0 4.64 0 0.096 0.48 0.448 2.048 0.448 2.048h3.36l-2.976-13.568zM40.544 17.952c0.288-0.768 1.44-3.808 1.44-3.808-0.032 0.032 0.288-0.8 0.48-1.28l0.256 1.184c0 0 0.704 3.232 0.832 3.936l-3.008-0.032z"></path>
<path fill="rgb(38, 86, 151)" d="M18.944 22.784l2.272-13.568h3.616l-2.272 13.568h-3.616z"></path>
<path fill="rgb(38, 86, 151)" d="M15.936 9.216l-3.552 9.248-0.384-1.888c-0.672-2.176-2.72-4.512-5.024-5.696l3.232 11.872h3.84l5.696-13.536h-3.808z"></path>
<path fill="rgb(217, 123, 22)" d="M9.088 9.184h-5.856l-0.032 0.288c4.544 1.12 7.552 3.84 8.8 7.104l-1.28-6.24c-0.224-0.864-0.832-1.12-1.632-1.152z"></path>
</svg>
