<?xml version="1.0" encoding="utf-8"?>
<!-- Generated by IcoMoon.io -->
<!DOCTYPE svg PUBLIC "-//W3C//DTD SVG 1.1//EN" "http://www.w3.org/Graphics/SVG/1.1/DTD/svg11.dtd">
<svg version="1.1" xmlns="http://www.w3.org/2000/svg" xmlns:xlink="http://www.w3.org/1999/xlink" width="51" height="32" viewBox="0 0 51 32">
<path fill="rgb(38, 86, 151)" d="M47.36 0c-2.56 0-29.664 0-44.8 0-1.28 0-2.56 1.28-2.56 2.56v25.6c0 2.56 1.28 3.84 3.84 3.84 14.272 0 40.96 0 43.52 0s3.84-1.28 3.84-3.84v-24.32c0-2.56-1.28-3.84-3.84-3.84z"></path>
<path fill="rgb(223, 172, 22)" d="M47.84 16.16c0 7.424-5.952 13.472-13.312 13.472s-13.312-6.016-13.312-13.472v0c0-7.424 5.952-13.472 13.312-13.472s13.312 6.016 13.312 13.472v0c0 0 0 0 0 0v0 0z"></path>
<path fill="rgb(191, 49, 38)" d="M16.576 2.688c-7.328 0.032-13.248 6.048-13.248 13.472s5.952 13.472 13.312 13.472c3.456 0 6.592-1.344 8.96-3.52 0 0 0 0 0 0v0c0.48-0.448 0.928-0.928 1.344-1.44h-2.72c-0.352-0.448-0.704-0.896-0.992-1.376h4.704c0.288-0.448 0.544-0.928 0.768-1.44h-6.272c-0.224-0.448-0.384-0.928-0.544-1.408h7.36c0.448-1.344 0.672-2.784 0.672-4.256 0-0.992-0.096-1.952-0.32-2.88h-8.128c0.096-0.48 0.224-0.96 0.384-1.408h7.36c-0.16-0.48-0.352-0.96-0.576-1.44h-6.24c0.224-0.48 0.48-0.96 0.768-1.408h4.704c-0.32-0.512-0.672-0.992-1.024-1.44h-2.624c0.416-0.48 0.864-0.928 1.344-1.344-2.368-2.176-5.504-3.52-8.96-3.52 0.032-0.064 0-0.064-0.032-0.064 0 0 0.032 0 0 0v0 0z"></path>
<path fill="rgb(255, 255, 255)" d="M21.44 19.584l0.192-1.216c-0.096 0-0.224 0.032-0.352 0.032-0.48 0-0.544-0.256-0.512-0.448l0.384-2.496h0.736l0.192-1.344h-0.704l0.16-0.832h-1.408c-0.032 0.032-0.832 4.704-0.832 5.28 0 0.832 0.48 1.216 1.12 1.216 0.48 0 0.896-0.16 1.024-0.192 0 0-0.128 0.032 0 0v0 0z"></path>
<path fill="rgb(255, 255, 255)" d="M21.92 17.28c0 2.016 1.312 2.496 2.464 2.496 1.056 0 1.504-0.224 1.504-0.224l0.256-1.376c0 0-0.8 0.352-1.504 0.352-1.536 0-1.248-1.152-1.248-1.152h2.88c0 0 0.192-0.928 0.192-1.312 0-0.96-0.48-2.080-2.016-2.080-1.472-0.032-2.528 1.536-2.528 3.296 0 0 0-1.76 0 0v0 0zM24.384 15.232c0.8 0 0.64 0.896 0.64 0.992h-1.568c0-0.096 0.16-0.992 0.928-0.992 0 0-0.768 0 0 0v0 0z"></path>
<path fill="rgb(255, 255, 255)" d="M33.376 19.584l0.256-1.568c0 0-0.704 0.352-1.184 0.352-0.992 0-1.408-0.768-1.408-1.6 0-1.696 0.864-2.624 1.824-2.624 0.736 0 1.312 0.416 1.312 0.416l0.224-1.504c0 0-0.864-0.352-1.6-0.352-1.632 0-3.232 1.44-3.232 4.128 0 1.792 0.864 2.976 2.56 2.976 0.48-0.032 1.248-0.224 1.248-0.224v0 0 0z"></path>
<path fill="rgb(255, 255, 255)" d="M13.664 13.984c-0.96 0-1.728 0.32-1.728 0.32l-0.192 1.248c0 0 0.608-0.256 1.536-0.256 0.544 0 0.928 0.064 0.928 0.48 0 0.256-0.032 0.352-0.032 0.352s-0.416-0.032-0.608-0.032c-1.216 0-2.528 0.544-2.528 2.112 0 1.248 0.832 1.536 1.376 1.536 0.992 0 1.44-0.672 1.44-0.672l-0.032 0.544h1.248l0.544-3.936c0-1.632-1.472-1.696-1.952-1.696v0 0 0zM13.952 17.184c0.032 0.256-0.16 1.376-0.992 1.376-0.448 0-0.544-0.352-0.544-0.544 0-0.384 0.224-0.864 1.248-0.864 0.224 0 0.256 0.032 0.288 0.032 0 0-0.032 0 0 0v0 0z"></path>
<path fill="rgb(255, 255, 255)" d="M16.928 19.744c0.32 0 2.144 0.096 2.144-1.824 0-1.792-1.696-1.44-1.696-2.144 0-0.352 0.288-0.48 0.768-0.48 0.192 0 0.96 0.064 0.96 0.064l0.192-1.28c0 0-0.512-0.128-1.312-0.128-1.056 0-2.112 0.416-2.112 1.856 0 1.632 1.76 1.472 1.76 2.176 0 0.448-0.512 0.512-0.864 0.512-0.672 0-1.248-0.224-1.248-0.224l-0.192 1.248c0.032 0.064 0.416 0.224 1.6 0.224 0 0-1.184 0 0 0v0 0z"></path>
<path fill="rgb(255, 255, 255)" d="M45.12 12.832l-0.32 1.92c0 0-0.544-0.736-1.376-0.736-1.312 0-2.368 1.568-2.368 3.392 0 1.184 0.576 2.336 1.76 2.336 0.864 0 1.312-0.608 1.312-0.608l-0.064 0.512h1.376l1.088-6.816h-1.408zM44.448 16.576c0 0.768-0.384 1.76-1.152 1.76-0.512 0-0.736-0.448-0.736-1.12 0-1.12 0.48-1.856 1.12-1.856 0.512 0.032 0.768 0.384 0.768 1.216 0 0 0-0.832 0 0v0 0z"></path>
<path fill="rgb(255, 255, 255)" d="M5.984 19.648l0.864-5.152 0.128 5.152h0.992l1.824-5.152-0.8 5.152h1.44l1.12-6.816h-2.24l-1.408 4.192-0.064-4.192h-2.080l-1.12 6.816h1.344z"></path>
<path fill="rgb(255, 255, 255)" d="M27.84 19.68c0.416-2.368 0.48-4.288 1.472-3.936 0.16-0.928 0.352-1.28 0.512-1.664 0 0-0.096-0.032-0.288-0.032-0.64 0-1.12 0.864-1.12 0.864l0.128-0.8h-1.312l-0.896 5.568h1.504z"></path>
<path fill="rgb(255, 255, 255)" d="M36.64 13.984c-0.96 0-1.728 0.32-1.728 0.32l-0.192 1.248c0 0 0.608-0.256 1.536-0.256 0.544 0 0.928 0.064 0.928 0.48 0 0.256-0.032 0.352-0.032 0.352s-0.416-0.032-0.608-0.032c-1.216 0-2.528 0.544-2.528 2.112 0 1.248 0.832 1.536 1.376 1.536 0.992 0 1.44-0.672 1.44-0.672l-0.032 0.544h1.248l0.544-3.936c0-1.632-1.44-1.696-1.952-1.696v0 0 0zM36.96 17.184c0.032 0.256-0.16 1.376-0.992 1.376-0.448 0-0.544-0.352-0.544-0.544 0-0.384 0.224-0.864 1.248-0.864 0.224 0 0.224 0.032 0.288 0.032 0 0-0.064 0 0 0v0 0z"></path>
<path fill="rgb(255, 255, 255)" d="M39.744 19.68c0.416-2.368 0.48-4.288 1.472-3.936 0.16-0.928 0.352-1.28 0.512-1.664 0 0-0.096-0.032-0.288-0.032-0.64 0-1.12 0.864-1.12 0.864l0.128-0.8h-1.312l-0.896 5.568h1.504z"></path>
</svg>
