<?xml version="1.0" encoding="utf-8"?>
<!-- Generated by IcoMoon.io -->
<!DOCTYPE svg PUBLIC "-//W3C//DTD SVG 1.1//EN" "http://www.w3.org/Graphics/SVG/1.1/DTD/svg11.dtd">
<svg version="1.1" xmlns="http://www.w3.org/2000/svg" xmlns:xlink="http://www.w3.org/1999/xlink" width="51" height="32" viewBox="0 0 51 32">
<path fill="rgb(246, 246, 246)" d="M47.36 0c-2.56 0-29.664 0-44.8 0-1.28 0-2.56 1.28-2.56 2.56v25.6c0 2.56 1.28 3.84 3.84 3.84 14.272 0 40.96 0 43.52 0s3.84-1.28 3.84-3.84v-24.32c0-2.56-1.28-3.84-3.84-3.84z"></path>
<path fill="rgb(48, 111, 197)" d="M48.576 10.72h-1.344c0 0 0 0 0 0v0c-0.32 0-0.608 0.224-0.704 0.512 0 0 0 0.032 0 0.032s-0.032 0.128-0.096 0.384l-1.856 8.16c-0.032 0.192-0.064 0.32-0.064 0.32v0c-0.064 0.288 0.096 0.512 0.416 0.544v0h1.408c0.32 0 0.608-0.224 0.704-0.512 0 0 0-0.032 0-0.032l2.016-8.864c0.032-0.32-0.16-0.544-0.48-0.544zM41.664 18.72c-0.192 0.128-0.384 0.224-0.576 0.288-0.288 0.096-0.544 0.16-0.768 0.16-0.384 0-0.672-0.064-0.864-0.16s-0.288-0.288-0.288-0.544c0-0.288 0.064-0.544 0.224-0.704s0.384-0.32 0.64-0.416c0.256-0.096 0.608-0.16 0.992-0.224 0.352-0.032 1.024-0.128 1.12-0.128s0.16-0.032 0.096 0.192c-0.032 0.096-0.224 0.864-0.288 1.248-0.064 0.096-0.224 0.256-0.288 0.288 0 0 0.064-0.032 0 0zM44.32 13.216c-0.576-0.32-1.472-0.48-2.688-0.48-0.608 0-1.216 0.032-1.824 0.128-0.448 0.064-0.48 0.064-0.768 0.128-0.576 0.128-0.672 0.672-0.672 0.672l-0.192 0.736c-0.096 0.48 0.16 0.448 0.288 0.416 0.256-0.064 0.384-0.16 0.896-0.256 0.48-0.096 0.992-0.192 1.408-0.192 0.608 0 1.056 0.064 1.376 0.192s0.448 0.352 0.448 0.672c0 0.064 0 0.16-0.032 0.192-0.032 0.064-0.064 0.128-0.224 0.128-0.864 0.064-1.472 0.128-2.208 0.224s-1.376 0.288-1.92 0.512c-0.576 0.256-0.992 0.576-1.28 0.992s-0.416 0.928-0.416 1.536c0 0.576 0.224 1.024 0.608 1.376 0.416 0.352 0.928 0.544 1.6 0.544 0.416 0 0.704-0.032 0.928-0.096s0.48-0.128 0.736-0.256c0.192-0.064 0.384-0.192 0.608-0.32s0.384-0.256 0.576-0.352v0l-0.064 0.224c0 0 0 0 0 0v0c-0.064 0.288 0.128 0.512 0.416 0.544v0h0.032c0.192 0 0.864 0 1.152 0h0.224c0 0 0 0 0.032 0 0.288-0.032 0.576-0.256 0.64-0.544l1.088-4.608c0.032-0.096 0.032-0.224 0.064-0.384 0-0.16 0.032-0.256 0.032-0.352 0-0.576-0.288-1.056-0.864-1.376v0zM37.728 12.16c-0.192-0.352-0.48-0.64-0.832-0.864s-0.8-0.384-1.312-0.48c-0.512-0.096-1.088-0.128-1.76-0.128h-3.136c-0.32 0-0.64 0.256-0.704 0.544l-2.112 8.96c-0.064 0.32 0.128 0.544 0.448 0.544h1.504c0.32 0 0.64-0.256 0.736-0.544l0.512-2.176c0.064-0.32 0.384-0.544 0.736-0.544h0.416c1.824 0 3.264-0.352 4.288-1.088s1.536-1.696 1.536-2.912c-0.032-0.512-0.128-0.96-0.32-1.312zM34.464 15.104c-0.448 0.32-1.088 0.48-1.888 0.48h-0.384c-0.32 0-0.544-0.256-0.448-0.544l0.448-1.888c0.064-0.288 0.384-0.544 0.704-0.544h0.48c0.576 0 0.992 0.096 1.312 0.288 0.288 0.192 0.448 0.48 0.448 0.864 0.032 0.544-0.192 1.024-0.672 1.344z"></path>
<path fill="rgb(38, 86, 151)" d="M27.136 12.768c-0.288 0-0.672 0.224-0.832 0.512 0 0-1.92 3.2-2.112 3.52-0.096 0.16-0.192 0.064-0.224 0 0-0.064-0.608-3.52-0.608-3.52-0.064-0.288-0.352-0.512-0.736-0.512h-1.184c-0.288 0-0.48 0.224-0.416 0.512 0 0 0.928 5.056 1.088 6.272 0.096 0.672 0 0.768 0 0.768l-1.184 2.016c-0.16 0.288-0.064 0.512 0.224 0.512h1.376c0.288 0 0.672-0.224 0.832-0.512l5.312-8.8c0 0 0.512-0.768 0.032-0.736-0.288-0.032-1.568-0.032-1.568-0.032zM17.152 18.72c-0.192 0.128-0.384 0.224-0.576 0.288-0.288 0.096-0.544 0.16-0.8 0.16-0.384 0-0.672-0.064-0.864-0.16s-0.288-0.288-0.288-0.544c0-0.288 0.064-0.544 0.224-0.704s0.352-0.32 0.64-0.416c0.288-0.096 0.608-0.16 0.992-0.224 0.352-0.032 1.024-0.128 1.12-0.128s0.128-0.032 0.096 0.192c-0.032 0.096-0.224 0.864-0.288 1.248-0.032 0.096-0.192 0.256-0.256 0.288 0 0 0.064-0.032 0 0zM19.808 13.216c-0.576-0.32-1.472-0.48-2.688-0.48-0.608 0-1.216 0.032-1.824 0.128-0.448 0.064-0.48 0.064-0.768 0.128-0.576 0.128-0.672 0.672-0.672 0.672l-0.192 0.736c-0.096 0.48 0.16 0.448 0.288 0.416 0.256-0.064 0.384-0.16 0.896-0.256 0.48-0.096 0.992-0.192 1.408-0.192 0.608 0 1.056 0.064 1.376 0.192s0.448 0.352 0.448 0.672c0 0.064 0 0.16-0.032 0.192-0.032 0.064-0.064 0.128-0.224 0.128-0.864 0.064-1.472 0.128-2.208 0.224s-1.376 0.288-1.92 0.512c-0.576 0.256-0.992 0.576-1.28 0.992s-0.416 0.928-0.416 1.536c0 0.576 0.224 1.024 0.608 1.376 0.416 0.352 0.928 0.544 1.6 0.544 0.416 0 0.704-0.032 0.928-0.096s0.48-0.128 0.736-0.256c0.192-0.064 0.384-0.192 0.608-0.32s0.384-0.256 0.576-0.352v0l-0.064 0.224c0 0 0 0 0 0v0c-0.064 0.288 0.096 0.512 0.416 0.544v0h0.032c0.192 0 0.864 0 1.152 0h0.224c0 0 0.032 0 0.032 0 0.288-0.032 0.576-0.256 0.64-0.544l1.088-4.608c0.032-0.096 0.032-0.224 0.064-0.384 0-0.16 0.032-0.256 0.032-0.352 0-0.576-0.288-1.056-0.864-1.376zM12.96 12.16c-0.192-0.352-0.48-0.64-0.832-0.864s-0.8-0.384-1.312-0.48c-0.512-0.096-1.088-0.128-1.76-0.128h-3.136c-0.32 0-0.64 0.256-0.704 0.544l-2.112 8.96c-0.064 0.32 0.128 0.544 0.448 0.544h1.504c0.32 0 0.64-0.256 0.736-0.544l0.512-2.176c0.064-0.32 0.384-0.544 0.736-0.544h0.416c1.824 0 3.264-0.352 4.288-1.088s1.536-1.696 1.536-2.912c-0.032-0.512-0.128-0.96-0.32-1.312zM9.696 15.104c-0.448 0.32-1.088 0.48-1.888 0.48h-0.384c-0.32 0-0.544-0.256-0.448-0.544l0.448-1.888c0.064-0.288 0.384-0.544 0.704-0.544h0.48c0.576 0 0.992 0.096 1.312 0.288 0.288 0.192 0.448 0.48 0.448 0.864 0.032 0.544-0.192 1.024-0.672 1.344z"></path>
</svg>
