<?xml version="1.0" encoding="utf-8"?>
<!-- Generated by IcoMoon.io -->
<!DOCTYPE svg PUBLIC "-//W3C//DTD SVG 1.1//EN" "http://www.w3.org/Graphics/SVG/1.1/DTD/svg11.dtd">
<svg version="1.1" xmlns="http://www.w3.org/2000/svg" xmlns:xlink="http://www.w3.org/1999/xlink" width="51" height="32" viewBox="0 0 51 32">
<path fill="rgb(244, 244, 244)" d="M47.203 0c-2.551 0-29.565 0-44.651 0-1.276 0-2.551 1.276-2.551 2.551 0 7.676 0 22.974 0 25.526s1.276 3.827 3.827 3.827c14.235 0 40.824 0 43.375 0s3.827-1.276 3.827-3.827 0-15.777 0-24.25c0-2.551-1.276-3.827-3.827-3.827z"></path>
<path fill="rgb(65, 134, 205)" d="M25.547 25.823c2.69-2.435 4.369-5.964 4.369-9.876s-1.68-7.431-4.369-9.876c-2.36-2.147-5.496-3.445-8.93-3.445-7.357 0-13.321 5.964-13.321 13.321s5.954 13.321 13.321 13.321c3.423 0 6.57-1.308 8.93-3.445z"></path>
<path fill="rgb(68, 135, 202)" d="M25.547 25.823c2.69-2.435 4.369-5.964 4.369-9.876s-1.68-7.431-4.369-9.876v19.753z"></path>
<path fill="rgb(202, 70, 56)" d="M34.488 2.626c-3.445 0-6.591 1.308-8.941 3.445-0.478 0.436-0.925 0.914-1.35 1.414h2.69c0.372 0.447 0.712 0.914 1.010 1.414h-4.71c-0.276 0.447-0.532 0.925-0.776 1.414h6.251c0.213 0.457 0.393 0.925 0.553 1.414h-7.357c-0.159 0.457-0.298 0.925-0.393 1.414h8.154c0.202 0.914 0.298 1.85 0.298 2.817 0 1.478-0.234 2.902-0.691 4.231h-7.357c0.159 0.489 0.34 0.957 0.553 1.414h6.251c-0.234 0.489-0.478 0.957-0.776 1.414h-4.71c0.298 0.489 0.648 0.967 1.010 1.414h2.69c-0.415 0.5-0.872 0.978-1.35 1.414 2.36 2.137 5.496 3.445 8.941 3.445 7.346 0 13.3-5.964 13.3-13.321 0.011-7.378-5.943-13.342-13.289-13.342z"></path>
<path fill="rgb(35, 31, 32)" d="M46.384 23.346h0.064c0.021 0 0.043 0 0.043-0.011 0.021-0.011 0.043-0.032 0.043-0.043 0-0.021-0.021-0.032-0.043-0.043 0-0.011-0.043-0.011-0.043-0.011h-0.064v0.106zM46.384 23.559h-0.085v-0.383h0.159c0.043 0 0.064 0 0.096 0.021 0.021 0.021 0.043 0.053 0.043 0.096s-0.021 0.085-0.064 0.096l0.064 0.17h-0.096l-0.043-0.149h-0.074v0.149zM46.437 23.697c0.181 0 0.34-0.149 0.34-0.33s-0.159-0.33-0.34-0.33c-0.181 0-0.319 0.149-0.319 0.33s0.149 0.33 0.319 0.33v0zM46.001 23.378c0-0.234 0.202-0.425 0.436-0.425s0.436 0.191 0.436 0.425c0 0.234-0.202 0.425-0.436 0.425s-0.436-0.191-0.436-0.425v0z"></path>
<path fill="rgb(35, 31, 32)" d="M14.544 19.657h-1.68l0.989-5.188-2.275 5.188h-1.382l-0.276-5.167-1.106 5.167h-1.52l1.286-6.751h2.637l0.043 4.178 1.818-4.178h2.785l-1.318 6.751z"></path>
<path fill="rgb(35, 31, 32)" d="M33.042 19.583c-0.457 0.128-0.808 0.181-1.191 0.181-0.851 0-1.308-0.425-1.308-1.212 0-0.159 0-0.319 0.043-0.489l0.096-0.542 0.074-0.436 0.776-4.199h1.637l-0.234 1.265h0.85l-0.234 1.329h-0.85l-0.436 2.296c-0.021 0.106-0.021 0.181-0.021 0.223 0 0.287 0.159 0.404 0.553 0.404 0.202 0 0.34-0.021 0.457-0.053l-0.213 1.233z"></path>
<path fill="rgb(35, 31, 32)" d="M26.472 15.894c0 0.691 0.372 1.169 1.265 1.531 0.67 0.276 0.787 0.361 0.787 0.606 0 0.34-0.298 0.5-0.967 0.5-0.5 0-0.967-0.064-1.499-0.223l-0.213 1.265 0.383 0.064c0.096 0.021 0.234 0.032 0.436 0.053 0.393 0.032 0.712 0.043 0.925 0.043 1.765 0 2.573-0.585 2.573-1.839 0-0.755-0.34-1.201-1.169-1.531-0.712-0.276-0.787-0.34-0.787-0.595 0-0.298 0.276-0.447 0.808-0.447 0.34 0 0.787 0.032 1.212 0.085l0.234-1.276c-0.436-0.064-1.084-0.106-1.467-0.106-1.882 0.011-2.541 0.861-2.52 1.871z"></path>
<path fill="rgb(35, 31, 32)" d="M18.775 17.212c-0.181-0.021-0.255-0.021-0.372-0.021-0.925 0-1.403 0.276-1.403 0.84 0 0.34 0.234 0.563 0.595 0.563 0.67-0.011 1.159-0.574 1.18-1.382v0 0zM19.902 19.657h-1.382l0.043-0.574c-0.436 0.447-0.989 0.67-1.744 0.67-0.914 0-1.52-0.617-1.52-1.499 0-1.34 1.074-2.116 2.913-2.116 0.202 0 0.436 0.011 0.67 0.043 0.064-0.181 0.074-0.255 0.074-0.361 0-0.361-0.298-0.5-1.074-0.5-0.478 0-1.010 0.064-1.382 0.159l-0.213 0.053-0.159 0.032 0.234-1.233c0.829-0.213 1.361-0.287 1.977-0.287 1.425 0 2.179 0.553 2.179 1.616 0 0.266-0.021 0.478-0.138 1.084l-0.34 1.945-0.064 0.351-0.043 0.276-0.043 0.191 0.011 0.149z"></path>
<path fill="rgb(35, 31, 32)" d="M24.537 16.266c0-0.117 0.021-0.213 0.021-0.276 0-0.447-0.298-0.712-0.787-0.712-0.532 0-0.914 0.351-1.052 0.989h1.818zM25.345 19.53c-0.574 0.149-1.127 0.223-1.701 0.223-1.86 0-2.807-0.84-2.807-2.456 0-1.882 1.223-3.274 2.892-3.274 1.361 0 2.233 0.776 2.233 1.999 0 0.404-0.064 0.797-0.213 1.361h-3.285c-0.021 0.085-0.021 0.117-0.021 0.17 0 0.638 0.5 0.957 1.467 0.957 0.595 0 1.127-0.106 1.722-0.351l-0.287 1.371z"></path>
<path fill="rgb(35, 31, 32)" d="M41.334 16.51c0-0.574-0.234-1.116-0.914-1.116-0.85 0-1.361 0.999-1.361 1.882 0 0.744 0.351 1.244 0.946 1.233 0.351 0 1.127-0.489 1.265-1.35 0.043-0.191 0.064-0.415 0.064-0.648v0zM43.014 17.159c-0.234 1.829-1.52 2.637-3.221 2.637-1.86 0-2.615-1.138-2.615-2.53 0-1.945 1.265-3.264 3.243-3.264 1.722 0 2.637 1.084 2.637 2.477 0 0.34 0 0.361-0.043 0.68v0z"></path>
<path fill="rgb(255, 255, 255)" d="M43.567 18.807h0.064c0 0 0.021 0 0.043-0.011s0.021-0.032 0.021-0.043c0-0.011 0-0.032-0.021-0.043 0-0.011-0.043-0.011-0.064-0.011h-0.043v0.106zM43.567 19.019h-0.074v-0.383h0.159c0.021 0 0.064 0 0.096 0.021 0.021 0.021 0.043 0.053 0.043 0.096s-0.021 0.085-0.064 0.096l0.064 0.17h-0.096l-0.064-0.149h-0.064v0.149zM43.631 19.157c0.181 0 0.319-0.149 0.319-0.33s-0.138-0.33-0.319-0.33c-0.181 0-0.34 0.149-0.34 0.33 0 0.191 0.159 0.33 0.34 0.33v0zM43.195 18.839c0-0.234 0.202-0.425 0.436-0.425s0.436 0.191 0.436 0.425c0 0.234-0.202 0.425-0.436 0.425s-0.436-0.191-0.436-0.425v0z"></path>
<path fill="rgb(255, 255, 255)" d="M14.958 19.264h-1.669l0.989-5.188-2.275 5.188h-1.499l-0.276-5.156-0.989 5.156h-1.499l1.286-6.751h2.594l0.117 4.189 1.839-4.189h2.69l-1.308 6.751z"></path>
<path fill="rgb(255, 255, 255)" d="M33.456 19.2c-0.457 0.128-0.808 0.181-1.191 0.181-0.851 0-1.308-0.425-1.308-1.201 0-0.159 0.021-0.319 0.043-0.489l0.096-0.542 0.074-0.436 0.776-4.199h1.637l-0.234 1.265h0.85l-0.234 1.34h-0.85l-0.436 2.296c-0.021 0.096-0.021 0.181-0.021 0.223 0 0.287 0.181 0.404 0.574 0.404 0.181 0 0.319-0.021 0.436-0.053l-0.213 1.212z"></path>
<path fill="rgb(35, 31, 32)" d="M37.709 15.351l-0.043-0.17 0.34-0.861c-0.074-0.011-0.117-0.011-0.117-0.021-0.096-0.021-0.138-0.032-0.159-0.032-0.043-0.011-0.096-0.011-0.159-0.011-0.553 0-0.925 0.245-1.446 0.893l0.181-0.978h-1.722l-1.010 5.486h1.648c0.213-1.255 0.319-1.977 0.457-2.573 0.213-0.989 0.946-1.435 1.488-1.34 0.064 0.011 0.096 0.011 0.181 0.043l0.096 0.043 0.266-0.478z"></path>
<path fill="rgb(255, 255, 255)" d="M38.283 13.821c-0.138-0.053-0.159-0.053-0.181-0.064-0.074-0.021-0.138-0.032-0.138-0.032-0.064-0.011-0.117-0.011-0.181-0.011-0.532 0-0.925 0.245-1.446 0.893l0.159-0.829h-1.499l-1.010 5.496h1.658c0.595-3.359 0.85-3.944 1.637-3.944 0.064 0 0.117 0.011 0.202 0.011l0.202 0.043 0.595-1.563z"></path>
<path fill="rgb(255, 255, 255)" d="M26.886 15.511c0 0.691 0.393 1.169 1.286 1.531 0.67 0.276 0.776 0.351 0.776 0.606 0 0.34-0.298 0.5-0.946 0.5-0.51 0-0.967-0.064-1.499-0.213l-0.234 1.265 0.074 0.011 0.298 0.053c0.096 0.021 0.255 0.032 0.457 0.053 0.393 0.032 0.691 0.043 0.914 0.043 1.775 0 2.594-0.574 2.594-1.829 0-0.755-0.34-1.201-1.191-1.531-0.691-0.276-0.776-0.34-0.776-0.595 0-0.298 0.276-0.447 0.808-0.447 0.34 0 0.776 0.032 1.212 0.085l0.234-1.276c-0.436-0.064-1.084-0.106-1.488-0.106-1.86-0.011-2.52 0.829-2.52 1.85z"></path>
<path fill="rgb(255, 255, 255)" d="M19.126 16.819c-0.181-0.021-0.255-0.021-0.372-0.021-0.925 0-1.403 0.276-1.403 0.84 0 0.34 0.213 0.563 0.595 0.563 0.67-0.011 1.148-0.574 1.18-1.382v0 0zM20.338 19.264h-1.382l0.043-0.563c-0.415 0.447-0.989 0.659-1.744 0.659-0.893 0-1.499-0.617-1.499-1.499 0-1.34 1.074-2.116 2.913-2.116 0.181 0 0.415 0.021 0.67 0.043 0.043-0.181 0.064-0.255 0.064-0.361 0-0.361-0.298-0.5-1.074-0.5-0.478 0-1.010 0.053-1.361 0.149l-0.234 0.064-0.138 0.032 0.213-1.233c0.829-0.213 1.361-0.287 1.977-0.287 1.425 0 2.179 0.553 2.179 1.605 0 0.266-0.021 0.478-0.117 1.084l-0.361 1.956-0.064 0.351-0.043 0.276-0.021 0.191-0.021 0.149z"></path>
<path fill="rgb(255, 255, 255)" d="M24.888 15.883v-0.276c0-0.447-0.276-0.702-0.776-0.702-0.532 0-0.914 0.351-1.074 0.989l1.85-0.011zM25.759 19.147c-0.553 0.149-1.106 0.223-1.68 0.223-1.86 0-2.828-0.84-2.828-2.466 0-1.882 1.223-3.274 2.892-3.274 1.361 0 2.233 0.776 2.233 1.999 0 0.404-0.064 0.797-0.202 1.361h-3.285c-0.021 0.085-0.021 0.117-0.021 0.17 0 0.638 0.5 0.957 1.446 0.957 0.595 0 1.127-0.106 1.722-0.351l-0.276 1.382z"></path>
<path fill="rgb(255, 255, 255)" d="M41.728 16.074c0-0.574-0.234-1.116-0.914-1.116-0.85 0-1.361 0.999-1.361 1.882 0 0.744 0.361 1.244 0.946 1.233 0.361 0 1.127-0.489 1.265-1.35 0.043-0.191 0.064-0.415 0.064-0.648v0zM43.45 16.776c-0.255 1.829-1.52 2.637-3.221 2.637-1.882 0-2.637-1.138-2.637-2.53 0-1.945 1.286-3.264 3.264-3.264 1.722 0 2.637 1.084 2.637 2.477 0 0.34 0 0.361-0.043 0.68v0z"></path>
</svg>
