<?xml version="1.0" encoding="utf-8"?>
<!-- Generated by IcoMoon.io -->
<!DOCTYPE svg PUBLIC "-//W3C//DTD SVG 1.1//EN" "http://www.w3.org/Graphics/SVG/1.1/DTD/svg11.dtd">
<svg version="1.1" xmlns="http://www.w3.org/2000/svg" xmlns:xlink="http://www.w3.org/1999/xlink" width="435" height="32" viewBox="0 0 435 32">
<svg id="icon-logo-paypal" width="51" height="32" viewBox="0 0 51 32" x="0" y="0">
<path fill="rgb(246, 246, 246)" d="M47.36 0c-2.56 0-29.664 0-44.8 0-1.28 0-2.56 1.28-2.56 2.56v25.6c0 2.56 1.28 3.84 3.84 3.84 14.272 0 40.96 0 43.52 0s3.84-1.28 3.84-3.84v-24.32c0-2.56-1.28-3.84-3.84-3.84z"></path>
<path fill="rgb(48, 111, 197)" d="M48.576 10.72h-1.344c0 0 0 0 0 0v0c-0.32 0-0.608 0.224-0.704 0.512 0 0 0 0.032 0 0.032s-0.032 0.128-0.096 0.384l-1.856 8.16c-0.032 0.192-0.064 0.32-0.064 0.32v0c-0.064 0.288 0.096 0.512 0.416 0.544v0h1.408c0.32 0 0.608-0.224 0.704-0.512 0 0 0-0.032 0-0.032l2.016-8.864c0.032-0.32-0.16-0.544-0.48-0.544zM41.664 18.72c-0.192 0.128-0.384 0.224-0.576 0.288-0.288 0.096-0.544 0.16-0.768 0.16-0.384 0-0.672-0.064-0.864-0.16s-0.288-0.288-0.288-0.544c0-0.288 0.064-0.544 0.224-0.704s0.384-0.32 0.64-0.416c0.256-0.096 0.608-0.16 0.992-0.224 0.352-0.032 1.024-0.128 1.12-0.128s0.16-0.032 0.096 0.192c-0.032 0.096-0.224 0.864-0.288 1.248-0.064 0.096-0.224 0.256-0.288 0.288 0 0 0.064-0.032 0 0zM44.32 13.216c-0.576-0.32-1.472-0.48-2.688-0.48-0.608 0-1.216 0.032-1.824 0.128-0.448 0.064-0.48 0.064-0.768 0.128-0.576 0.128-0.672 0.672-0.672 0.672l-0.192 0.736c-0.096 0.48 0.16 0.448 0.288 0.416 0.256-0.064 0.384-0.16 0.896-0.256 0.48-0.096 0.992-0.192 1.408-0.192 0.608 0 1.056 0.064 1.376 0.192s0.448 0.352 0.448 0.672c0 0.064 0 0.16-0.032 0.192-0.032 0.064-0.064 0.128-0.224 0.128-0.864 0.064-1.472 0.128-2.208 0.224s-1.376 0.288-1.92 0.512c-0.576 0.256-0.992 0.576-1.28 0.992s-0.416 0.928-0.416 1.536c0 0.576 0.224 1.024 0.608 1.376 0.416 0.352 0.928 0.544 1.6 0.544 0.416 0 0.704-0.032 0.928-0.096s0.48-0.128 0.736-0.256c0.192-0.064 0.384-0.192 0.608-0.32s0.384-0.256 0.576-0.352v0l-0.064 0.224c0 0 0 0 0 0v0c-0.064 0.288 0.128 0.512 0.416 0.544v0h0.032c0.192 0 0.864 0 1.152 0h0.224c0 0 0 0 0.032 0 0.288-0.032 0.576-0.256 0.64-0.544l1.088-4.608c0.032-0.096 0.032-0.224 0.064-0.384 0-0.16 0.032-0.256 0.032-0.352 0-0.576-0.288-1.056-0.864-1.376v0zM37.728 12.16c-0.192-0.352-0.48-0.64-0.832-0.864s-0.8-0.384-1.312-0.48c-0.512-0.096-1.088-0.128-1.76-0.128h-3.136c-0.32 0-0.64 0.256-0.704 0.544l-2.112 8.96c-0.064 0.32 0.128 0.544 0.448 0.544h1.504c0.32 0 0.64-0.256 0.736-0.544l0.512-2.176c0.064-0.32 0.384-0.544 0.736-0.544h0.416c1.824 0 3.264-0.352 4.288-1.088s1.536-1.696 1.536-2.912c-0.032-0.512-0.128-0.96-0.32-1.312zM34.464 15.104c-0.448 0.32-1.088 0.48-1.888 0.48h-0.384c-0.32 0-0.544-0.256-0.448-0.544l0.448-1.888c0.064-0.288 0.384-0.544 0.704-0.544h0.48c0.576 0 0.992 0.096 1.312 0.288 0.288 0.192 0.448 0.48 0.448 0.864 0.032 0.544-0.192 1.024-0.672 1.344z"></path>
<path fill="rgb(38, 86, 151)" d="M27.136 12.768c-0.288 0-0.672 0.224-0.832 0.512 0 0-1.92 3.2-2.112 3.52-0.096 0.16-0.192 0.064-0.224 0 0-0.064-0.608-3.52-0.608-3.52-0.064-0.288-0.352-0.512-0.736-0.512h-1.184c-0.288 0-0.48 0.224-0.416 0.512 0 0 0.928 5.056 1.088 6.272 0.096 0.672 0 0.768 0 0.768l-1.184 2.016c-0.16 0.288-0.064 0.512 0.224 0.512h1.376c0.288 0 0.672-0.224 0.832-0.512l5.312-8.8c0 0 0.512-0.768 0.032-0.736-0.288-0.032-1.568-0.032-1.568-0.032zM17.152 18.72c-0.192 0.128-0.384 0.224-0.576 0.288-0.288 0.096-0.544 0.16-0.8 0.16-0.384 0-0.672-0.064-0.864-0.16s-0.288-0.288-0.288-0.544c0-0.288 0.064-0.544 0.224-0.704s0.352-0.32 0.64-0.416c0.288-0.096 0.608-0.16 0.992-0.224 0.352-0.032 1.024-0.128 1.12-0.128s0.128-0.032 0.096 0.192c-0.032 0.096-0.224 0.864-0.288 1.248-0.032 0.096-0.192 0.256-0.256 0.288 0 0 0.064-0.032 0 0zM19.808 13.216c-0.576-0.32-1.472-0.48-2.688-0.48-0.608 0-1.216 0.032-1.824 0.128-0.448 0.064-0.48 0.064-0.768 0.128-0.576 0.128-0.672 0.672-0.672 0.672l-0.192 0.736c-0.096 0.48 0.16 0.448 0.288 0.416 0.256-0.064 0.384-0.16 0.896-0.256 0.48-0.096 0.992-0.192 1.408-0.192 0.608 0 1.056 0.064 1.376 0.192s0.448 0.352 0.448 0.672c0 0.064 0 0.16-0.032 0.192-0.032 0.064-0.064 0.128-0.224 0.128-0.864 0.064-1.472 0.128-2.208 0.224s-1.376 0.288-1.92 0.512c-0.576 0.256-0.992 0.576-1.28 0.992s-0.416 0.928-0.416 1.536c0 0.576 0.224 1.024 0.608 1.376 0.416 0.352 0.928 0.544 1.6 0.544 0.416 0 0.704-0.032 0.928-0.096s0.48-0.128 0.736-0.256c0.192-0.064 0.384-0.192 0.608-0.32s0.384-0.256 0.576-0.352v0l-0.064 0.224c0 0 0 0 0 0v0c-0.064 0.288 0.096 0.512 0.416 0.544v0h0.032c0.192 0 0.864 0 1.152 0h0.224c0 0 0.032 0 0.032 0 0.288-0.032 0.576-0.256 0.64-0.544l1.088-4.608c0.032-0.096 0.032-0.224 0.064-0.384 0-0.16 0.032-0.256 0.032-0.352 0-0.576-0.288-1.056-0.864-1.376zM12.96 12.16c-0.192-0.352-0.48-0.64-0.832-0.864s-0.8-0.384-1.312-0.48c-0.512-0.096-1.088-0.128-1.76-0.128h-3.136c-0.32 0-0.64 0.256-0.704 0.544l-2.112 8.96c-0.064 0.32 0.128 0.544 0.448 0.544h1.504c0.32 0 0.64-0.256 0.736-0.544l0.512-2.176c0.064-0.32 0.384-0.544 0.736-0.544h0.416c1.824 0 3.264-0.352 4.288-1.088s1.536-1.696 1.536-2.912c-0.032-0.512-0.128-0.96-0.32-1.312zM9.696 15.104c-0.448 0.32-1.088 0.48-1.888 0.48h-0.384c-0.32 0-0.544-0.256-0.448-0.544l0.448-1.888c0.064-0.288 0.384-0.544 0.704-0.544h0.48c0.576 0 0.992 0.096 1.312 0.288 0.288 0.192 0.448 0.48 0.448 0.864 0.032 0.544-0.192 1.024-0.672 1.344z"></path>
</svg>
<svg id="icon-logo-maestro" width="51" height="32" viewBox="0 0 51 32" x="96" y="0">
<path fill="rgb(244, 244, 244)" d="M47.203 0c-2.551 0-29.565 0-44.651 0-1.276 0-2.551 1.276-2.551 2.551 0 7.676 0 22.974 0 25.526s1.276 3.827 3.827 3.827c14.235 0 40.824 0 43.375 0s3.827-1.276 3.827-3.827 0-15.777 0-24.25c0-2.551-1.276-3.827-3.827-3.827z"></path>
<path fill="rgb(65, 134, 205)" d="M25.547 25.823c2.69-2.435 4.369-5.964 4.369-9.876s-1.68-7.431-4.369-9.876c-2.36-2.147-5.496-3.445-8.93-3.445-7.357 0-13.321 5.964-13.321 13.321s5.954 13.321 13.321 13.321c3.423 0 6.57-1.308 8.93-3.445z"></path>
<path fill="rgb(68, 135, 202)" d="M25.547 25.823c2.69-2.435 4.369-5.964 4.369-9.876s-1.68-7.431-4.369-9.876v19.753z"></path>
<path fill="rgb(202, 70, 56)" d="M34.488 2.626c-3.445 0-6.591 1.308-8.941 3.445-0.478 0.436-0.925 0.914-1.35 1.414h2.69c0.372 0.447 0.712 0.914 1.010 1.414h-4.71c-0.276 0.447-0.532 0.925-0.776 1.414h6.251c0.213 0.457 0.393 0.925 0.553 1.414h-7.357c-0.159 0.457-0.298 0.925-0.393 1.414h8.154c0.202 0.914 0.298 1.85 0.298 2.817 0 1.478-0.234 2.902-0.691 4.231h-7.357c0.159 0.489 0.34 0.957 0.553 1.414h6.251c-0.234 0.489-0.478 0.957-0.776 1.414h-4.71c0.298 0.489 0.648 0.967 1.010 1.414h2.69c-0.415 0.5-0.872 0.978-1.35 1.414 2.36 2.137 5.496 3.445 8.941 3.445 7.346 0 13.3-5.964 13.3-13.321 0.011-7.378-5.943-13.342-13.289-13.342z"></path>
<path fill="rgb(35, 31, 32)" d="M46.384 23.346h0.064c0.021 0 0.043 0 0.043-0.011 0.021-0.011 0.043-0.032 0.043-0.043 0-0.021-0.021-0.032-0.043-0.043 0-0.011-0.043-0.011-0.043-0.011h-0.064v0.106zM46.384 23.559h-0.085v-0.383h0.159c0.043 0 0.064 0 0.096 0.021 0.021 0.021 0.043 0.053 0.043 0.096s-0.021 0.085-0.064 0.096l0.064 0.17h-0.096l-0.043-0.149h-0.074v0.149zM46.437 23.697c0.181 0 0.34-0.149 0.34-0.33s-0.159-0.33-0.34-0.33c-0.181 0-0.319 0.149-0.319 0.33s0.149 0.33 0.319 0.33v0zM46.001 23.378c0-0.234 0.202-0.425 0.436-0.425s0.436 0.191 0.436 0.425c0 0.234-0.202 0.425-0.436 0.425s-0.436-0.191-0.436-0.425v0z"></path>
<path fill="rgb(35, 31, 32)" d="M14.544 19.657h-1.68l0.989-5.188-2.275 5.188h-1.382l-0.276-5.167-1.106 5.167h-1.52l1.286-6.751h2.637l0.043 4.178 1.818-4.178h2.785l-1.318 6.751z"></path>
<path fill="rgb(35, 31, 32)" d="M33.042 19.583c-0.457 0.128-0.808 0.181-1.191 0.181-0.851 0-1.308-0.425-1.308-1.212 0-0.159 0-0.319 0.043-0.489l0.096-0.542 0.074-0.436 0.776-4.199h1.637l-0.234 1.265h0.85l-0.234 1.329h-0.85l-0.436 2.296c-0.021 0.106-0.021 0.181-0.021 0.223 0 0.287 0.159 0.404 0.553 0.404 0.202 0 0.34-0.021 0.457-0.053l-0.213 1.233z"></path>
<path fill="rgb(35, 31, 32)" d="M26.472 15.894c0 0.691 0.372 1.169 1.265 1.531 0.67 0.276 0.787 0.361 0.787 0.606 0 0.34-0.298 0.5-0.967 0.5-0.5 0-0.967-0.064-1.499-0.223l-0.213 1.265 0.383 0.064c0.096 0.021 0.234 0.032 0.436 0.053 0.393 0.032 0.712 0.043 0.925 0.043 1.765 0 2.573-0.585 2.573-1.839 0-0.755-0.34-1.201-1.169-1.531-0.712-0.276-0.787-0.34-0.787-0.595 0-0.298 0.276-0.447 0.808-0.447 0.34 0 0.787 0.032 1.212 0.085l0.234-1.276c-0.436-0.064-1.084-0.106-1.467-0.106-1.882 0.011-2.541 0.861-2.52 1.871z"></path>
<path fill="rgb(35, 31, 32)" d="M18.775 17.212c-0.181-0.021-0.255-0.021-0.372-0.021-0.925 0-1.403 0.276-1.403 0.84 0 0.34 0.234 0.563 0.595 0.563 0.67-0.011 1.159-0.574 1.18-1.382v0 0zM19.902 19.657h-1.382l0.043-0.574c-0.436 0.447-0.989 0.67-1.744 0.67-0.914 0-1.52-0.617-1.52-1.499 0-1.34 1.074-2.116 2.913-2.116 0.202 0 0.436 0.011 0.67 0.043 0.064-0.181 0.074-0.255 0.074-0.361 0-0.361-0.298-0.5-1.074-0.5-0.478 0-1.010 0.064-1.382 0.159l-0.213 0.053-0.159 0.032 0.234-1.233c0.829-0.213 1.361-0.287 1.977-0.287 1.425 0 2.179 0.553 2.179 1.616 0 0.266-0.021 0.478-0.138 1.084l-0.34 1.945-0.064 0.351-0.043 0.276-0.043 0.191 0.011 0.149z"></path>
<path fill="rgb(35, 31, 32)" d="M24.537 16.266c0-0.117 0.021-0.213 0.021-0.276 0-0.447-0.298-0.712-0.787-0.712-0.532 0-0.914 0.351-1.052 0.989h1.818zM25.345 19.53c-0.574 0.149-1.127 0.223-1.701 0.223-1.86 0-2.807-0.84-2.807-2.456 0-1.882 1.223-3.274 2.892-3.274 1.361 0 2.233 0.776 2.233 1.999 0 0.404-0.064 0.797-0.213 1.361h-3.285c-0.021 0.085-0.021 0.117-0.021 0.17 0 0.638 0.5 0.957 1.467 0.957 0.595 0 1.127-0.106 1.722-0.351l-0.287 1.371z"></path>
<path fill="rgb(35, 31, 32)" d="M41.334 16.51c0-0.574-0.234-1.116-0.914-1.116-0.85 0-1.361 0.999-1.361 1.882 0 0.744 0.351 1.244 0.946 1.233 0.351 0 1.127-0.489 1.265-1.35 0.043-0.191 0.064-0.415 0.064-0.648v0zM43.014 17.159c-0.234 1.829-1.52 2.637-3.221 2.637-1.86 0-2.615-1.138-2.615-2.53 0-1.945 1.265-3.264 3.243-3.264 1.722 0 2.637 1.084 2.637 2.477 0 0.34 0 0.361-0.043 0.68v0z"></path>
<path fill="rgb(255, 255, 255)" d="M43.567 18.807h0.064c0 0 0.021 0 0.043-0.011s0.021-0.032 0.021-0.043c0-0.011 0-0.032-0.021-0.043 0-0.011-0.043-0.011-0.064-0.011h-0.043v0.106zM43.567 19.019h-0.074v-0.383h0.159c0.021 0 0.064 0 0.096 0.021 0.021 0.021 0.043 0.053 0.043 0.096s-0.021 0.085-0.064 0.096l0.064 0.17h-0.096l-0.064-0.149h-0.064v0.149zM43.631 19.157c0.181 0 0.319-0.149 0.319-0.33s-0.138-0.33-0.319-0.33c-0.181 0-0.34 0.149-0.34 0.33 0 0.191 0.159 0.33 0.34 0.33v0zM43.195 18.839c0-0.234 0.202-0.425 0.436-0.425s0.436 0.191 0.436 0.425c0 0.234-0.202 0.425-0.436 0.425s-0.436-0.191-0.436-0.425v0z"></path>
<path fill="rgb(255, 255, 255)" d="M14.958 19.264h-1.669l0.989-5.188-2.275 5.188h-1.499l-0.276-5.156-0.989 5.156h-1.499l1.286-6.751h2.594l0.117 4.189 1.839-4.189h2.69l-1.308 6.751z"></path>
<path fill="rgb(255, 255, 255)" d="M33.456 19.2c-0.457 0.128-0.808 0.181-1.191 0.181-0.851 0-1.308-0.425-1.308-1.201 0-0.159 0.021-0.319 0.043-0.489l0.096-0.542 0.074-0.436 0.776-4.199h1.637l-0.234 1.265h0.85l-0.234 1.34h-0.85l-0.436 2.296c-0.021 0.096-0.021 0.181-0.021 0.223 0 0.287 0.181 0.404 0.574 0.404 0.181 0 0.319-0.021 0.436-0.053l-0.213 1.212z"></path>
<path fill="rgb(35, 31, 32)" d="M37.709 15.351l-0.043-0.17 0.34-0.861c-0.074-0.011-0.117-0.011-0.117-0.021-0.096-0.021-0.138-0.032-0.159-0.032-0.043-0.011-0.096-0.011-0.159-0.011-0.553 0-0.925 0.245-1.446 0.893l0.181-0.978h-1.722l-1.010 5.486h1.648c0.213-1.255 0.319-1.977 0.457-2.573 0.213-0.989 0.946-1.435 1.488-1.34 0.064 0.011 0.096 0.011 0.181 0.043l0.096 0.043 0.266-0.478z"></path>
<path fill="rgb(255, 255, 255)" d="M38.283 13.821c-0.138-0.053-0.159-0.053-0.181-0.064-0.074-0.021-0.138-0.032-0.138-0.032-0.064-0.011-0.117-0.011-0.181-0.011-0.532 0-0.925 0.245-1.446 0.893l0.159-0.829h-1.499l-1.010 5.496h1.658c0.595-3.359 0.85-3.944 1.637-3.944 0.064 0 0.117 0.011 0.202 0.011l0.202 0.043 0.595-1.563z"></path>
<path fill="rgb(255, 255, 255)" d="M26.886 15.511c0 0.691 0.393 1.169 1.286 1.531 0.67 0.276 0.776 0.351 0.776 0.606 0 0.34-0.298 0.5-0.946 0.5-0.51 0-0.967-0.064-1.499-0.213l-0.234 1.265 0.074 0.011 0.298 0.053c0.096 0.021 0.255 0.032 0.457 0.053 0.393 0.032 0.691 0.043 0.914 0.043 1.775 0 2.594-0.574 2.594-1.829 0-0.755-0.34-1.201-1.191-1.531-0.691-0.276-0.776-0.34-0.776-0.595 0-0.298 0.276-0.447 0.808-0.447 0.34 0 0.776 0.032 1.212 0.085l0.234-1.276c-0.436-0.064-1.084-0.106-1.488-0.106-1.86-0.011-2.52 0.829-2.52 1.85z"></path>
<path fill="rgb(255, 255, 255)" d="M19.126 16.819c-0.181-0.021-0.255-0.021-0.372-0.021-0.925 0-1.403 0.276-1.403 0.84 0 0.34 0.213 0.563 0.595 0.563 0.67-0.011 1.148-0.574 1.18-1.382v0 0zM20.338 19.264h-1.382l0.043-0.563c-0.415 0.447-0.989 0.659-1.744 0.659-0.893 0-1.499-0.617-1.499-1.499 0-1.34 1.074-2.116 2.913-2.116 0.181 0 0.415 0.021 0.67 0.043 0.043-0.181 0.064-0.255 0.064-0.361 0-0.361-0.298-0.5-1.074-0.5-0.478 0-1.010 0.053-1.361 0.149l-0.234 0.064-0.138 0.032 0.213-1.233c0.829-0.213 1.361-0.287 1.977-0.287 1.425 0 2.179 0.553 2.179 1.605 0 0.266-0.021 0.478-0.117 1.084l-0.361 1.956-0.064 0.351-0.043 0.276-0.021 0.191-0.021 0.149z"></path>
<path fill="rgb(255, 255, 255)" d="M24.888 15.883v-0.276c0-0.447-0.276-0.702-0.776-0.702-0.532 0-0.914 0.351-1.074 0.989l1.85-0.011zM25.759 19.147c-0.553 0.149-1.106 0.223-1.68 0.223-1.86 0-2.828-0.84-2.828-2.466 0-1.882 1.223-3.274 2.892-3.274 1.361 0 2.233 0.776 2.233 1.999 0 0.404-0.064 0.797-0.202 1.361h-3.285c-0.021 0.085-0.021 0.117-0.021 0.17 0 0.638 0.5 0.957 1.446 0.957 0.595 0 1.127-0.106 1.722-0.351l-0.276 1.382z"></path>
<path fill="rgb(255, 255, 255)" d="M41.728 16.074c0-0.574-0.234-1.116-0.914-1.116-0.85 0-1.361 0.999-1.361 1.882 0 0.744 0.361 1.244 0.946 1.233 0.361 0 1.127-0.489 1.265-1.35 0.043-0.191 0.064-0.415 0.064-0.648v0zM43.45 16.776c-0.255 1.829-1.52 2.637-3.221 2.637-1.882 0-2.637-1.138-2.637-2.53 0-1.945 1.286-3.264 3.264-3.264 1.722 0 2.637 1.084 2.637 2.477 0 0.34 0 0.361-0.043 0.68v0z"></path>
</svg>
<svg id="icon-logo-mastercard" width="51" height="32" viewBox="0 0 51 32" x="192" y="0">
<path fill="rgb(38, 86, 151)" d="M47.36 0c-2.56 0-29.664 0-44.8 0-1.28 0-2.56 1.28-2.56 2.56v25.6c0 2.56 1.28 3.84 3.84 3.84 14.272 0 40.96 0 43.52 0s3.84-1.28 3.84-3.84v-24.32c0-2.56-1.28-3.84-3.84-3.84z"></path>
<path fill="rgb(223, 172, 22)" d="M47.84 16.16c0 7.424-5.952 13.472-13.312 13.472s-13.312-6.016-13.312-13.472v0c0-7.424 5.952-13.472 13.312-13.472s13.312 6.016 13.312 13.472v0c0 0 0 0 0 0v0 0z"></path>
<path fill="rgb(191, 49, 38)" d="M16.576 2.688c-7.328 0.032-13.248 6.048-13.248 13.472s5.952 13.472 13.312 13.472c3.456 0 6.592-1.344 8.96-3.52 0 0 0 0 0 0v0c0.48-0.448 0.928-0.928 1.344-1.44h-2.72c-0.352-0.448-0.704-0.896-0.992-1.376h4.704c0.288-0.448 0.544-0.928 0.768-1.44h-6.272c-0.224-0.448-0.384-0.928-0.544-1.408h7.36c0.448-1.344 0.672-2.784 0.672-4.256 0-0.992-0.096-1.952-0.32-2.88h-8.128c0.096-0.48 0.224-0.96 0.384-1.408h7.36c-0.16-0.48-0.352-0.96-0.576-1.44h-6.24c0.224-0.48 0.48-0.96 0.768-1.408h4.704c-0.32-0.512-0.672-0.992-1.024-1.44h-2.624c0.416-0.48 0.864-0.928 1.344-1.344-2.368-2.176-5.504-3.52-8.96-3.52 0.032-0.064 0-0.064-0.032-0.064 0 0 0.032 0 0 0v0 0z"></path>
<path fill="rgb(255, 255, 255)" d="M21.44 19.584l0.192-1.216c-0.096 0-0.224 0.032-0.352 0.032-0.48 0-0.544-0.256-0.512-0.448l0.384-2.496h0.736l0.192-1.344h-0.704l0.16-0.832h-1.408c-0.032 0.032-0.832 4.704-0.832 5.28 0 0.832 0.48 1.216 1.12 1.216 0.48 0 0.896-0.16 1.024-0.192 0 0-0.128 0.032 0 0v0 0z"></path>
<path fill="rgb(255, 255, 255)" d="M21.92 17.28c0 2.016 1.312 2.496 2.464 2.496 1.056 0 1.504-0.224 1.504-0.224l0.256-1.376c0 0-0.8 0.352-1.504 0.352-1.536 0-1.248-1.152-1.248-1.152h2.88c0 0 0.192-0.928 0.192-1.312 0-0.96-0.48-2.080-2.016-2.080-1.472-0.032-2.528 1.536-2.528 3.296 0 0 0-1.76 0 0v0 0zM24.384 15.232c0.8 0 0.64 0.896 0.64 0.992h-1.568c0-0.096 0.16-0.992 0.928-0.992 0 0-0.768 0 0 0v0 0z"></path>
<path fill="rgb(255, 255, 255)" d="M33.376 19.584l0.256-1.568c0 0-0.704 0.352-1.184 0.352-0.992 0-1.408-0.768-1.408-1.6 0-1.696 0.864-2.624 1.824-2.624 0.736 0 1.312 0.416 1.312 0.416l0.224-1.504c0 0-0.864-0.352-1.6-0.352-1.632 0-3.232 1.44-3.232 4.128 0 1.792 0.864 2.976 2.56 2.976 0.48-0.032 1.248-0.224 1.248-0.224v0 0 0z"></path>
<path fill="rgb(255, 255, 255)" d="M13.664 13.984c-0.96 0-1.728 0.32-1.728 0.32l-0.192 1.248c0 0 0.608-0.256 1.536-0.256 0.544 0 0.928 0.064 0.928 0.48 0 0.256-0.032 0.352-0.032 0.352s-0.416-0.032-0.608-0.032c-1.216 0-2.528 0.544-2.528 2.112 0 1.248 0.832 1.536 1.376 1.536 0.992 0 1.44-0.672 1.44-0.672l-0.032 0.544h1.248l0.544-3.936c0-1.632-1.472-1.696-1.952-1.696v0 0 0zM13.952 17.184c0.032 0.256-0.16 1.376-0.992 1.376-0.448 0-0.544-0.352-0.544-0.544 0-0.384 0.224-0.864 1.248-0.864 0.224 0 0.256 0.032 0.288 0.032 0 0-0.032 0 0 0v0 0z"></path>
<path fill="rgb(255, 255, 255)" d="M16.928 19.744c0.32 0 2.144 0.096 2.144-1.824 0-1.792-1.696-1.44-1.696-2.144 0-0.352 0.288-0.48 0.768-0.48 0.192 0 0.96 0.064 0.96 0.064l0.192-1.28c0 0-0.512-0.128-1.312-0.128-1.056 0-2.112 0.416-2.112 1.856 0 1.632 1.76 1.472 1.76 2.176 0 0.448-0.512 0.512-0.864 0.512-0.672 0-1.248-0.224-1.248-0.224l-0.192 1.248c0.032 0.064 0.416 0.224 1.6 0.224 0 0-1.184 0 0 0v0 0z"></path>
<path fill="rgb(255, 255, 255)" d="M45.12 12.832l-0.32 1.92c0 0-0.544-0.736-1.376-0.736-1.312 0-2.368 1.568-2.368 3.392 0 1.184 0.576 2.336 1.76 2.336 0.864 0 1.312-0.608 1.312-0.608l-0.064 0.512h1.376l1.088-6.816h-1.408zM44.448 16.576c0 0.768-0.384 1.76-1.152 1.76-0.512 0-0.736-0.448-0.736-1.12 0-1.12 0.48-1.856 1.12-1.856 0.512 0.032 0.768 0.384 0.768 1.216 0 0 0-0.832 0 0v0 0z"></path>
<path fill="rgb(255, 255, 255)" d="M5.984 19.648l0.864-5.152 0.128 5.152h0.992l1.824-5.152-0.8 5.152h1.44l1.12-6.816h-2.24l-1.408 4.192-0.064-4.192h-2.080l-1.12 6.816h1.344z"></path>
<path fill="rgb(255, 255, 255)" d="M27.84 19.68c0.416-2.368 0.48-4.288 1.472-3.936 0.16-0.928 0.352-1.28 0.512-1.664 0 0-0.096-0.032-0.288-0.032-0.64 0-1.12 0.864-1.12 0.864l0.128-0.8h-1.312l-0.896 5.568h1.504z"></path>
<path fill="rgb(255, 255, 255)" d="M36.64 13.984c-0.96 0-1.728 0.32-1.728 0.32l-0.192 1.248c0 0 0.608-0.256 1.536-0.256 0.544 0 0.928 0.064 0.928 0.48 0 0.256-0.032 0.352-0.032 0.352s-0.416-0.032-0.608-0.032c-1.216 0-2.528 0.544-2.528 2.112 0 1.248 0.832 1.536 1.376 1.536 0.992 0 1.44-0.672 1.44-0.672l-0.032 0.544h1.248l0.544-3.936c0-1.632-1.44-1.696-1.952-1.696v0 0 0zM36.96 17.184c0.032 0.256-0.16 1.376-0.992 1.376-0.448 0-0.544-0.352-0.544-0.544 0-0.384 0.224-0.864 1.248-0.864 0.224 0 0.224 0.032 0.288 0.032 0 0-0.064 0 0 0v0 0z"></path>
<path fill="rgb(255, 255, 255)" d="M39.744 19.68c0.416-2.368 0.48-4.288 1.472-3.936 0.16-0.928 0.352-1.28 0.512-1.664 0 0-0.096-0.032-0.288-0.032-0.64 0-1.12 0.864-1.12 0.864l0.128-0.8h-1.312l-0.896 5.568h1.504z"></path>
</svg>
<svg id="icon-logo-visa" width="51" height="32" viewBox="0 0 51 32" x="288" y="0">
<path fill="rgb(246, 246, 246)" d="M0 2.88h51.2v25.6h-51.2v-25.6z"></path>
<path fill="rgb(38, 86, 151)" d="M47.36 0c-2.56 0-29.664 0-44.8 0-1.28 0-2.56 1.28-2.56 2.56v3.84h51.2c0 0 0 5.952 0-2.56 0-2.56-1.28-3.84-3.84-3.84z"></path>
<path fill="rgb(217, 123, 22)" d="M0 25.6c0 0 0 0 0 2.56s1.28 3.84 3.84 3.84c14.272 0 40.96 0 43.52 0s3.84-1.28 3.84-3.84v-2.56h-51.2z"></path>
<path fill="rgb(38, 86, 151)" d="M35.712 9.536c-0.704-0.288-1.856-0.576-3.232-0.576-3.584 0-6.112 1.856-6.112 4.48-0.032 1.952 1.792 3.040 3.168 3.68 1.408 0.672 1.888 1.088 1.888 1.696 0 0.896-1.12 1.312-2.176 1.312-1.44 0-2.208-0.192-3.424-0.704l-0.48-0.224-0.512 3.040c0.832 0.384 2.4 0.704 4.032 0.736 3.808 0 6.272-1.824 6.304-4.64 0-1.536-0.96-2.72-3.040-3.68-1.28-0.64-2.048-1.056-2.048-1.696 0-0.576 0.672-1.152 2.080-1.152 1.184-0.032 2.048 0.256 2.72 0.512l0.32 0.16 0.512-2.944z"></path>
<path fill="rgb(38, 86, 151)" d="M44.992 9.216h-2.784c-0.864 0-1.504 0.256-1.888 1.12l-5.376 12.448h3.808c0 0 0.608-1.664 0.768-2.048 0.416 0 4.096 0 4.64 0 0.096 0.48 0.448 2.048 0.448 2.048h3.36l-2.976-13.568zM40.544 17.952c0.288-0.768 1.44-3.808 1.44-3.808-0.032 0.032 0.288-0.8 0.48-1.28l0.256 1.184c0 0 0.704 3.232 0.832 3.936l-3.008-0.032z"></path>
<path fill="rgb(38, 86, 151)" d="M18.944 22.784l2.272-13.568h3.616l-2.272 13.568h-3.616z"></path>
<path fill="rgb(38, 86, 151)" d="M15.936 9.216l-3.552 9.248-0.384-1.888c-0.672-2.176-2.72-4.512-5.024-5.696l3.232 11.872h3.84l5.696-13.536h-3.808z"></path>
<path fill="rgb(217, 123, 22)" d="M9.088 9.184h-5.856l-0.032 0.288c4.544 1.12 7.552 3.84 8.8 7.104l-1.28-6.24c-0.224-0.864-0.832-1.12-1.632-1.152z"></path>
</svg>
</svg>
