<?xml version="1.0" encoding="utf-8"?>
<!-- Generated by IcoMoon.io -->
<!DOCTYPE svg PUBLIC "-//W3C//DTD SVG 1.1//EN" "http://www.w3.org/Graphics/SVG/1.1/DTD/svg11.dtd">
<svg version="1.1" xmlns="http://www.w3.org/2000/svg" xmlns:xlink="http://www.w3.org/1999/xlink" width="320" height="32" viewBox="0 0 320 32">
<svg id="icon-meet-greet" width="32" height="32" viewBox="0 0 32 32" x="0" y="0">
<path fill="rgb(119, 155, 208)" d="M30.56 16c0 8.041-6.519 14.56-14.56 14.56s-14.56-6.519-14.56-14.56c0-8.041 6.519-14.56 14.56-14.56s14.56 6.519 14.56 14.56z"></path>
<path fill="rgb(255, 255, 255)" d="M23.232 9.984l-2.144 1.312 0.16 0.256c-1.024-0.288-3.104-0.832-4.192-0.832-1.024 0-1.568 0.256-2.304 0.608-0.128 0.064-1.312 0.608-1.312 0.64h-2.496l-2.304 3.136 1.632 1.472c-0.128 0.352-0.064 0.704 0.16 0.96s0.512 0.384 0.896 0.32c-0.256 0.48-0.224 0.832 0.064 1.152 0.256 0.32 0.64 0.416 1.152 0.224-0.096 0.352-0.064 0.64 0.192 0.928 0.224 0.256 0.512 0.384 0.896 0.32l0.096-0.032c-0.16 0.416-0.096 0.768 0.128 1.024 0.352 0.384 0.928 0.448 1.312 0.096l0.352-0.288 0.352 0.64c0.16 0.32 0.576 0.48 0.928 0.288s0.448-0.608 0.288-0.928c-0.256-0.448-0.64-1.184-0.64-1.184 0-0.352-0.096-0.48-0.288-0.672l0.256-0.16c0 0 0.736 1.376 0.992 1.888 0.16 0.32 0.576 0.48 0.928 0.288s0.448-0.608 0.288-0.928l-1.056-1.984 0.288-0.192 1.184 2.24c0.192 0.352 0.608 0.448 0.928 0.288 0.352-0.192 0.448-0.608 0.288-0.928l-1.216-2.304 0.32-0.192c0 0 0.8 1.568 1.12 2.112 0.16 0.32 0.576 0.48 0.928 0.288s0.48-0.576 0.288-0.928l-0.896-1.632c0.608-0.352 0.992-0.896 1.408-1.568l1.088-0.672 0.32 0.544 2.304-1.216-2.688-4.384zM12.384 18.784c-0.192 0.192-0.512 0.16-0.672-0.032s-0.128-0.64 0.192-0.832c0.032 0 1.888-1.632 1.888-1.632 0.192-0.16 0.512-0.16 0.704 0.064 0.192 0.192 0.16 0.512-0.032 0.704l-2.080 1.728zM13.696 19.904c-0.192 0.192-0.512 0.16-0.704-0.032-0.16-0.192-0.16-0.48 0-0.672 0.032-0.032 1.504-1.312 1.536-1.344 0.192-0.192 0.512-0.16 0.704 0.032 0.192 0.224 0.16 0.512-0.032 0.704l-1.504 1.312zM15.776 20.416l-0.928 0.8c-0.192 0.192-0.512 0.16-0.704-0.064s-0.16-0.512 0.032-0.704l0.928-0.832c0.192-0.16 0.48-0.16 0.672 0.032s0.256 0.544 0 0.768zM21.92 15.36c-0.032 0.032-0.064 0.064-0.096 0.096-0.32 0.48-0.8 1.12-1.248 1.344-1.888-2.56-2.912-3.424-4.288-4.608l-3.168 1.504c-0.224 0.128-0.544 0.032-0.64-0.224-0.128-0.256-0.032-0.544 0.224-0.672l3.072-1.44c0.384-0.128 0.8-0.224 1.28-0.224 1.056 0 3.52 0.672 4.544 0.96l1.504 2.56-1.184 0.704zM6.048 13.6l2.656-3.872 1.952 1.568-2.592 3.584-2.016-1.28zM10.752 17.248c-0.192-0.224-0.16-0.512 0.032-0.704l1.696-1.472c0.192-0.16 0.512-0.16 0.704 0.064s0.16 0.512-0.032 0.704l-1.696 1.472c-0.192 0.16-0.512 0.16-0.704-0.064v0z"></path>
</svg>
<svg id="icon-luggage" width="32" height="32" viewBox="0 0 32 32" x="48" y="0">
<path fill="rgb(119, 155, 208)" d="M30.56 16c0 8.041-6.519 14.56-14.56 14.56s-14.56-6.519-14.56-14.56c0-8.041 6.519-14.56 14.56-14.56s14.56 6.519 14.56 14.56z"></path>
<path fill="rgb(255, 255, 255)" d="M7.712 11.552c-0.448 0.448-0.672 0.96-0.672 1.568v8.32c0 0.608 0.224 1.152 0.672 1.568 0.448 0.448 0.96 0.672 1.568 0.672h0.64v-12.8h-0.64c-0.608 0-1.12 0.224-1.568 0.672v0z"></path>
<path fill="rgb(255, 255, 255)" d="M19.84 9.28c0-0.256-0.096-0.48-0.288-0.672s-0.416-0.288-0.672-0.288h-5.76c-0.256 0-0.48 0.096-0.672 0.288s-0.288 0.416-0.288 0.672v1.6h-1.28v12.8h10.24v-12.8h-1.28v-1.6zM18.56 10.88h-5.12v-1.28h5.12v1.28z"></path>
<path fill="rgb(255, 255, 255)" d="M24.288 11.552c-0.448-0.448-0.96-0.672-1.568-0.672h-0.64v12.8h0.64c0.608 0 1.152-0.224 1.568-0.672 0.448-0.448 0.672-0.96 0.672-1.568v-8.32c-0.032-0.608-0.224-1.12-0.672-1.568v0z"></path>
</svg>
<svg id="icon-upgrade" width="32" height="32" viewBox="0 0 32 32" x="96" y="0">
<path fill="rgb(119, 155, 208)" d="M30.56 16c0 8.041-6.519 14.56-14.56 14.56s-14.56-6.519-14.56-14.56c0-8.041 6.519-14.56 14.56-14.56s14.56 6.519 14.56 14.56z"></path>
<path fill="rgb(255, 255, 255)" d="M24.096 22.656c0 0-2.112-3.616-2.496-4.256 0.416-0.128 0.896-0.256 1.088-0.576 0.32-0.544-0.256-1.44-0.096-2.016 0.16-0.608 1.056-1.12 1.056-1.728s-0.928-1.312-1.088-1.888c-0.16-0.576 0.416-1.472 0.096-2.016s-1.376-0.512-1.824-0.928c-0.448-0.416-0.448-1.504-0.992-1.792s-1.44 0.288-2.016 0.16c-0.608-0.128-1.12-1.024-1.76-1.024s-1.632 1.024-1.792 1.056c-0.608 0.128-1.472-0.448-2.016-0.16s-0.544 1.344-0.992 1.792c-0.448 0.416-1.504 0.384-1.824 0.928s0.256 1.44 0.096 2.016c-0.16 0.576-1.088 1.184-1.088 1.856 0 0.608 0.896 1.12 1.056 1.728 0.16 0.576-0.416 1.472-0.096 2.016 0.16 0.288 0.576 0.416 0.96 0.544 0.032 0 0.128 0.064 0.064 0.16-0.256 0.448-2.432 4.192-2.432 4.192-0.16 0.288-0.032 0.544 0.32 0.576l1.664 0.064c0.352 0 0.768 0.256 0.96 0.544l0.896 1.408c0.192 0.288 0.48 0.288 0.64 0l2.56-4.352c0.064-0.064 0.096-0.032 0.128-0.032 0.288 0.224 0.64 0.48 0.96 0.48s0.608-0.224 0.896-0.448c0.032-0.032 0.064-0.064 0.128 0.032l2.496 4.288c0.16 0.288 0.448 0.288 0.64 0l0.896-1.408c0.192-0.288 0.608-0.544 0.96-0.544l1.664-0.064c0.32-0.064 0.48-0.32 0.288-0.608v0zM18.848 18.784c-1.856 1.088-4.064 0.96-5.76-0.096-2.496-1.6-3.296-4.896-1.824-7.488 1.504-2.624 4.832-3.52 7.488-2.112 0 0 0.032 0 0.032 0.032 0.032 0 0.032 0.032 0.064 0.032 0.8 0.48 1.504 1.152 2.016 2.016 1.536 2.656 0.64 6.048-2.016 7.616v0z"></path>
<path fill="rgb(255, 255, 255)" d="M18.432 9.92c0 0-0.032 0 0 0-1.44-0.832-3.232-0.896-4.736 0-2.24 1.312-2.976 4.16-1.696 6.4 0.384 0.672 0.928 1.216 1.568 1.6 0.064 0.032 0.096 0.064 0.16 0.096 2.24 1.28 5.12 0.544 6.4-1.696 1.312-2.24 0.544-5.088-1.696-6.4v0zM18.976 13.568l-0.768 0.768c-0.256 0.224-0.384 0.704-0.352 1.024l0.192 1.088c0.064 0.32-0.128 0.48-0.448 0.32l-0.96-0.512c-0.288-0.16-0.8-0.16-1.088 0l-0.96 0.512c-0.288 0.16-0.512 0-0.448-0.32l0.192-1.088c0.064-0.32-0.096-0.8-0.352-1.024l-0.768-0.768c-0.256-0.224-0.16-0.48 0.16-0.512l1.088-0.16c0.32-0.064 0.736-0.352 0.896-0.64l0.48-0.992c0.16-0.288 0.384-0.288 0.544 0l0.48 0.992c0.16 0.288 0.544 0.576 0.896 0.64l1.088 0.16c0.32 0.064 0.384 0.288 0.128 0.512v0z"></path>
</svg>
<svg id="icon-wifi" width="32" height="32" viewBox="0 0 32 32" x="144" y="0">
<path fill="rgb(119, 155, 208)" d="M30.56 16c0 8.041-6.519 14.56-14.56 14.56s-14.56-6.519-14.56-14.56c0-8.041 6.519-14.56 14.56-14.56s14.56 6.519 14.56 14.56z"></path>
<path fill="rgb(255, 255, 255)" d="M16 19.84c-1.056 0-1.92 0.864-1.92 1.92s0.864 1.92 1.92 1.92c1.056 0 1.92-0.864 1.92-1.92s-0.864-1.92-1.92-1.92v0zM26.304 13.12c-2.56-3.072-6.336-4.8-10.304-4.8s-7.712 1.76-10.304 4.8c-0.352 0.416-0.288 1.024 0.128 1.344 0.192 0.16 0.384 0.224 0.608 0.224 0.288 0 0.544-0.128 0.736-0.352 2.208-2.592 5.44-4.096 8.832-4.096s6.624 1.504 8.832 4.128c0.192 0.224 0.448 0.352 0.736 0.352 0.224 0 0.448-0.064 0.608-0.224 0.416-0.352 0.448-0.96 0.128-1.376v0zM16 12.16c-2.848 0-5.504 1.248-7.36 3.424-0.32 0.416-0.288 1.024 0.128 1.376 0.192 0.16 0.416 0.224 0.608 0.224 0.288 0 0.544-0.128 0.736-0.352 1.472-1.76 3.616-2.752 5.888-2.752s4.416 0.992 5.888 2.752c0.192 0.224 0.448 0.352 0.736 0.352 0.224 0 0.448-0.064 0.608-0.224 0.416-0.352 0.448-0.96 0.128-1.344-1.856-2.208-4.512-3.456-7.36-3.456v0zM16 16c-1.696 0-3.328 0.736-4.416 2.048-0.352 0.416-0.288 1.024 0.128 1.344 0.192 0.16 0.384 0.224 0.608 0.224 0.288 0 0.544-0.128 0.736-0.352 0.736-0.864 1.792-1.376 2.944-1.376 1.12 0 2.208 0.512 2.944 1.376 0.192 0.224 0.448 0.352 0.736 0.352 0.224 0 0.448-0.064 0.608-0.224 0.416-0.352 0.448-0.96 0.128-1.344-1.088-1.28-2.72-2.048-4.416-2.048v0z"></path>
</svg>
<svg id="icon-door-door" width="32" height="32" viewBox="0 0 32 32" x="192" y="0">
<path fill="rgb(119, 155, 208)" d="M30.56 16c0 8.041-6.519 14.56-14.56 14.56s-14.56-6.519-14.56-14.56c0-8.041 6.519-14.56 14.56-14.56s14.56 6.519 14.56 14.56z"></path>
<path fill="rgb(255, 255, 255)" d="M24 18.4l0.736-5.728-5.216-1.984-1.664 0.8c-0.064 0.256-0.128 0.512-0.224 0.736l1.248-0.608-0.512 5.568 0.032 0.288-3.808 0.576-0.32 0.608 4.192-0.64 0.48 4.928 0.576-0.064-0.48-4.96h0.064l4.352 0.544v-0.096l0.672 5.536-4.544-1.056-5.92 1.12h-0.064l0.544-5.056v-0.032l-0.064-0.128-0.736-1.44 0.096 0.896-0.096 0.032-4.224-0.64 0.032-0.192-0.64-5.088 2.944 1.248-0.256-0.544c-0.064-0.096-0.16-0.224-0.224-0.32l-3.168-1.344 0.768 5.984v0.128l-0.096 0.544h0.032l-0.64 5.472 5.792 1.088 5.92-1.12 5.216 1.216-0.8-6.272zM19.040 17.376h-0.096l-0.032-0.224 0.544-5.856 0.064-0.032 4.576 1.728-0.608 4.928-4.448-0.544zM13.024 23.904l-4.576-0.864 0.576-4.928 4.288 0.672 0.192-0.032 0.032 0.192-0.512 4.96zM14.144 18.88l-0.064-0.128v-0.064l0.192-0.032-0.128 0.224zM11.648 12.544l2.496 4.896 2.464-4.864c0.48-0.576 0.768-1.28 0.768-2.080 0-1.792-1.44-3.232-3.232-3.232s-3.232 1.44-3.232 3.232c0 0.8 0.288 1.504 0.736 2.048v0zM14.144 8.544c1.088 0 1.984 0.896 1.984 1.984s-0.896 1.984-1.984 1.984c-1.088 0-1.984-0.896-1.984-1.984 0-1.12 0.896-1.984 1.984-1.984v0z"></path>
</svg>
<svg id="icon-aircon" width="32" height="32" viewBox="0 0 32 32" x="240" y="0">
<path fill="rgb(119, 155, 208)" d="M30.56 16c0 8.041-6.519 14.56-14.56 14.56s-14.56-6.519-14.56-14.56c0-8.041 6.519-14.56 14.56-14.56s14.56 6.519 14.56 14.56z"></path>
<path fill="rgb(255, 255, 255)" d="M13.312 24.672c-0.064 0.192-0.256 0.32-0.448 0.32-0.064 0-0.096 0-0.16-0.032-0.608-0.224-1.216-0.512-1.76-0.864-0.224-0.128-0.288-0.448-0.128-0.672 0.128-0.224 0.448-0.288 0.672-0.128 0.48 0.32 1.024 0.576 1.568 0.768 0.224 0.096 0.352 0.352 0.256 0.608v0zM7.328 18.048c0.256-0.032 0.448-0.288 0.384-0.544-0.096-0.576-0.128-1.152-0.096-1.76 0-0.256-0.192-0.48-0.448-0.512-0.256 0-0.48 0.192-0.512 0.448-0.032 0.64 0 1.312 0.128 1.952 0.032 0.224 0.256 0.384 0.48 0.384 0.032 0.032 0.064 0.032 0.064 0.032v0zM18.976 9.92c0.032 0.032 0.096 0.032 0.128 0.064 0.064 0.032 0.128 0.032 0.192 0.032 0.192 0 0.352-0.096 0.448-0.288 0.096-0.256 0-0.512-0.256-0.64-0.032-0.032-0.096-0.032-0.16-0.064-0.256-0.096-0.512 0-0.608 0.256-0.128 0.256 0 0.544 0.256 0.64v0zM19.104 8.288c0.544 0.192 1.088 0.48 1.568 0.768 0.064 0.064 0.16 0.064 0.256 0.064 0.16 0 0.32-0.064 0.416-0.224 0.128-0.224 0.064-0.512-0.128-0.672-0.544-0.352-1.152-0.64-1.76-0.864-0.256-0.096-0.512 0.032-0.608 0.288-0.096 0.288 0.032 0.576 0.256 0.64v0zM23.36 15.008c-0.256 0.032-0.448 0.288-0.416 0.544 0 0.032 0 0.096 0.032 0.128 0.032 0.256 0.224 0.416 0.48 0.416 0.032 0 0.032 0 0.064 0 0.256-0.032 0.448-0.256 0.416-0.512 0-0.064 0-0.096-0.032-0.16-0.064-0.256-0.288-0.448-0.544-0.416v0zM8.736 17.344c0.032 0 0.032 0 0.064 0 0.256-0.032 0.448-0.288 0.416-0.544 0-0.032 0-0.096-0.032-0.128-0.032-0.256-0.256-0.448-0.512-0.416s-0.448 0.256-0.416 0.512c0 0.064 0 0.096 0.032 0.16 0 0.256 0.224 0.416 0.448 0.416v0zM25.344 14.72c-0.032-0.256-0.288-0.448-0.544-0.384-0.256 0.032-0.448 0.288-0.384 0.544 0.096 0.576 0.128 1.152 0.096 1.76 0 0.256 0.192 0.48 0.448 0.512 0 0 0 0 0.032 0 0.256 0 0.448-0.192 0.48-0.448 0.032-0.672 0-1.344-0.128-1.984v0zM25.248 19.328c0.128 0.48 0.096 0.992-0.16 1.44l-0.224 0.352c-0.256 0.416-0.672 0.736-1.152 0.864-0.48 0.096-0.928 0.032-1.312-0.224l-4.448-2.912 0.288 5.312c0.032 0.448-0.128 0.896-0.448 1.248-0.352 0.352-0.832 0.576-1.312 0.576h-0.416c-0.512 0-0.992-0.192-1.312-0.576-0.32-0.352-0.48-0.768-0.448-1.248l0.288-5.312-4.512 2.912c-0.384 0.256-0.832 0.32-1.312 0.224-0.48-0.128-0.896-0.416-1.152-0.864l-0.224-0.352c-0.256-0.416-0.32-0.96-0.16-1.44 0.128-0.448 0.448-0.8 0.832-1.024l4.768-2.4-4.768-2.4c-0.416-0.192-0.704-0.576-0.832-1.024-0.128-0.48-0.096-0.992 0.16-1.44l0.224-0.352c0.256-0.416 0.672-0.736 1.152-0.864 0.448-0.096 0.928-0.032 1.312 0.224l4.448 2.912-0.288-5.312c-0.032-0.448 0.128-0.896 0.448-1.248 0.352-0.352 0.832-0.576 1.312-0.576h0.416c0.512 0 0.992 0.192 1.312 0.576 0.32 0.352 0.48 0.768 0.448 1.248l-0.288 5.312 4.512-2.912c0.384-0.256 0.832-0.32 1.312-0.224 0.48 0.128 0.896 0.416 1.152 0.864l0.224 0.352c0.256 0.416 0.32 0.96 0.16 1.44-0.128 0.448-0.448 0.8-0.832 1.024l-4.768 2.4 4.768 2.4c0.384 0.224 0.672 0.576 0.832 1.024v0zM14.464 17.76c-0.352-0.32-0.608-0.768-0.704-1.248l-5.248 2.656c-0.16 0.096-0.288 0.256-0.352 0.448-0.064 0.224-0.032 0.48 0.064 0.672l0.224 0.352c0.128 0.192 0.32 0.352 0.544 0.416 0.192 0.064 0.416 0.032 0.576-0.096l4.896-3.2zM14.464 14.080l-4.896-3.2c-0.128-0.064-0.256-0.096-0.384-0.096-0.064 0-0.128 0-0.192 0.032-0.224 0.064-0.416 0.192-0.544 0.416l-0.224 0.352c-0.128 0.192-0.16 0.448-0.064 0.672 0.064 0.192 0.192 0.352 0.352 0.448l5.248 2.592c0.128-0.48 0.352-0.896 0.704-1.216v0zM15.2 7.616l0.32 5.856c0.224-0.064 0.416-0.096 0.64-0.096v0c0 0 0 0 0 0v0c0 0 0 0 0 0v0 0 0c0 0 0 0 0 0v0c0 0 0 0 0 0v0 0 0 0 0 0 0 0c0 0 0 0 0 0v0 0 0 0 0c0 0 0 0 0 0v0 0c0 0 0 0 0 0v0c0 0 0 0 0 0v0 0c0 0 0 0 0 0v0 0c0 0 0 0 0 0v0 0c0 0 0 0 0 0v0 0c0 0 0 0 0 0v0 0c0 0 0 0 0 0v0 0c0 0 0 0 0 0v0 0c0 0 0 0 0 0v0 0c0.224 0 0.416 0.032 0.608 0.096l0.32-5.856c0-0.192-0.064-0.384-0.192-0.544-0.16-0.16-0.384-0.256-0.64-0.256h-0.416c-0.224 0-0.48 0.096-0.64 0.256 0.064 0.16 0 0.352 0 0.544v0zM17.28 24.224l-0.32-5.856c-0.192 0.064-0.416 0.096-0.64 0.096v0c0 0 0 0 0 0v0 0 0c0 0 0 0 0 0v0 0c0 0 0 0 0 0v0 0c0 0 0 0 0 0v0 0c0 0 0 0 0 0v0 0c0 0 0 0 0 0v0 0 0 0 0 0 0 0 0c0 0 0 0 0 0v0 0c0 0 0 0 0 0v0c0 0 0 0 0 0v0 0 0c0 0 0 0 0 0v0c0 0 0 0 0 0v0 0 0 0 0 0 0c-0.224 0-0.448-0.032-0.64-0.096l-0.32 5.856c0 0.192 0.064 0.384 0.192 0.544 0.16 0.16 0.384 0.256 0.64 0.256h0.416c0.224 0 0.48-0.096 0.64-0.256-0.032-0.16 0.064-0.352 0.032-0.544v0zM17.856 15.904c0-0.032 0-0.064 0-0.096v0c-0.064-0.832-0.736-1.472-1.568-1.504v0 0c0 0 0 0 0 0v0c0 0 0 0 0 0v0 0 0c0 0 0 0 0 0v0 0 0c-0.832 0-1.536 0.672-1.568 1.504v0c0 0.032 0 0.064 0 0.096v0c0 0.032 0 0.064 0 0.096v0c0.064 0.832 0.736 1.472 1.568 1.504v0 0 0 0 0 0 0c0 0 0 0 0 0v0c0.832 0 1.536-0.672 1.568-1.504v0c0-0.032 0-0.064 0-0.096v0zM18.016 14.080c0.352 0.32 0.608 0.768 0.704 1.248l5.248-2.656c0.16-0.096 0.288-0.256 0.352-0.448 0.064-0.224 0.032-0.48-0.064-0.672l-0.224-0.352c-0.128-0.192-0.32-0.352-0.544-0.416-0.192-0.064-0.416-0.032-0.576 0.096l-4.896 3.2zM24.32 19.616c-0.064-0.192-0.192-0.352-0.352-0.448l-5.248-2.656c-0.128 0.48-0.352 0.896-0.704 1.248l4.896 3.2c0.16 0.096 0.352 0.128 0.576 0.096 0.224-0.064 0.416-0.192 0.544-0.416l0.224-0.352c0.096-0.192 0.128-0.448 0.064-0.672v0zM13.184 22.432c-0.032-0.032-0.096-0.032-0.128-0.064-0.256-0.096-0.512 0-0.64 0.256-0.096 0.256 0 0.512 0.256 0.64 0.032 0.032 0.096 0.032 0.16 0.064s0.128 0.032 0.192 0.032c0.192 0 0.352-0.096 0.448-0.288 0.064-0.256-0.032-0.512-0.288-0.64v0z"></path>
</svg>
</svg>
